<?xml version="1.0" encoding="utf-8"?>
<!-- Generator: Adobe Illustrator 27.2.0, SVG Export Plug-In . SVG Version: 6.00 Build 0)  -->
<svg version="1.1" id="Layer_1" xmlns="http://www.w3.org/2000/svg" xmlns:xlink="http://www.w3.org/1999/xlink" x="0px" y="0px"
	 viewBox="0 0 197.5 82.5" style="enable-background:new 0 0 197.5 82.5;" xml:space="preserve">
<style type="text/css">
	.st0{fill:#444444;}
	.st1{fill:#54FEBD;}
</style>
<g>
	<g>
		<path class="st0" d="M107.2,13.7c2.9,0,5.1,0.6,6.5,1.9c1.4,1.3,2.2,3.1,2.2,5.4c0,1-0.1,2-0.4,3c-0.3,1-0.8,1.8-1.5,2.6
			s-1.6,1.3-2.7,1.8s-2.5,0.7-4.1,0.7h-1.7v7.6h-6.2V13.7H107.2z M107.1,18.6h-1.6v5.2h1.2c0.5,0,1-0.1,1.5-0.3
			c0.5-0.2,0.8-0.5,1.1-0.9c0.3-0.4,0.4-1,0.4-1.6c0-0.7-0.2-1.3-0.6-1.8S108,18.6,107.1,18.6z"/>
		<path class="st0" d="M129.9,18.5c0.3,0,0.7,0,1,0.1c0.4,0,0.6,0.1,0.8,0.1l-0.5,5.8c-0.2-0.1-0.5-0.1-0.8-0.1
			c-0.3,0-0.8-0.1-1.3-0.1c-0.4,0-0.8,0-1.2,0.1c-0.4,0.1-0.9,0.2-1.2,0.5s-0.7,0.6-1,1.1c-0.2,0.5-0.4,1.1-0.4,1.9v8.7h-6.1V18.8
			h4.5l1,2.8h0.3c0.3-0.6,0.7-1.1,1.2-1.6c0.5-0.5,1.1-0.9,1.7-1.1C128.5,18.6,129.2,18.5,129.9,18.5z"/>
		<path class="st0" d="M151.1,27.6c0,1.5-0.2,2.8-0.6,3.9c-0.4,1.1-1,2.1-1.8,2.9c-0.8,0.8-1.7,1.4-2.8,1.8s-2.3,0.6-3.7,0.6
			c-1.3,0-2.5-0.2-3.5-0.6c-1.1-0.4-2-1-2.8-1.8c-0.8-0.8-1.4-1.7-1.8-2.9c-0.4-1.1-0.6-2.5-0.6-3.9c0-2,0.4-3.6,1.1-5
			c0.7-1.4,1.7-2.4,3.1-3.1c1.3-0.7,2.9-1.1,4.8-1.1c1.7,0,3.2,0.4,4.5,1.1c1.3,0.7,2.4,1.7,3.1,3.1C150.7,24,151.1,25.6,151.1,27.6
			z M139.6,27.6c0,1,0.1,1.9,0.3,2.6c0.2,0.7,0.5,1.2,0.9,1.6s0.9,0.5,1.5,0.5c0.6,0,1.1-0.2,1.5-0.5s0.6-0.9,0.8-1.6
			c0.2-0.7,0.3-1.5,0.3-2.6c0-1-0.1-1.9-0.3-2.5c-0.2-0.7-0.4-1.2-0.8-1.5c-0.4-0.3-0.9-0.5-1.5-0.5c-0.9,0-1.6,0.4-2,1.2
			C139.8,25,139.6,26.1,139.6,27.6z"/>
	</g>
	<g>
		<path class="st0" d="M109.3,44.4c-1.1,0-2.2,0.2-3.1,0.6c-0.9,0.4-1.7,1-2.3,1.7c-0.6,0.8-1.1,1.7-1.4,2.7s-0.5,2.3-0.5,3.6
			c0,1.8,0.3,3.3,0.8,4.6c0.5,1.3,1.3,2.3,2.4,3c1.1,0.7,2.4,1.1,4,1.1c1,0,1.9-0.1,2.8-0.3c0.9-0.2,1.8-0.4,2.6-0.7v2.7
			c-0.8,0.3-1.7,0.6-2.6,0.7c-0.9,0.2-2,0.2-3.2,0.2c-2.3,0-4.1-0.5-5.6-1.4c-1.5-0.9-2.6-2.3-3.4-4c-0.7-1.7-1.1-3.7-1.1-6
			c0-1.7,0.2-3.2,0.7-4.6c0.5-1.4,1.1-2.6,2-3.6c0.9-1,2-1.8,3.3-2.3c1.3-0.5,2.8-0.8,4.5-0.8c1.1,0,2.2,0.1,3.2,0.4
			c1.1,0.2,2,0.6,2.9,1l-1.2,2.6c-0.7-0.3-1.5-0.6-2.4-0.9C111.1,44.5,110.2,44.4,109.3,44.4z"/>
		<path class="st0" d="M133.2,47.5v16.7h-2.4l-0.4-2.3h-0.2c-0.3,0.6-0.8,1.1-1.3,1.4s-1.2,0.7-1.8,0.9s-1.4,0.3-2.1,0.3
			c-1.3,0-2.4-0.2-3.3-0.6c-0.9-0.4-1.6-1.1-2-2c-0.5-0.9-0.7-2-0.7-3.5V47.5h3.1V58c0,1.3,0.3,2.3,0.9,3c0.6,0.7,1.5,1,2.7,1
			c1.2,0,2.1-0.2,2.8-0.7c0.7-0.5,1.2-1.1,1.5-2s0.4-2,0.4-3.2v-8.6H133.2z"/>
		<path class="st0" d="M146.4,47.2c0.3,0,0.6,0,1,0.1s0.7,0.1,0.9,0.1l-0.3,2.8c-0.2-0.1-0.5-0.1-0.8-0.2c-0.3,0-0.6-0.1-0.9-0.1
			c-0.6,0-1.3,0.1-1.8,0.4c-0.6,0.2-1.1,0.6-1.5,1.1c-0.4,0.5-0.8,1-1,1.7s-0.4,1.4-0.4,2.3v8.8h-3.1V47.5h2.5l0.4,3h0.1
			c0.3-0.6,0.8-1.2,1.2-1.7c0.5-0.5,1.1-0.9,1.7-1.2C144.9,47.3,145.6,47.2,146.4,47.2z"/>
		<path class="st0" d="M162.4,59.5c0,1.1-0.3,2-0.8,2.7c-0.5,0.7-1.3,1.3-2.3,1.7c-1,0.4-2.2,0.6-3.6,0.6c-1.2,0-2.2-0.1-3-0.3
			c-0.8-0.2-1.6-0.4-2.3-0.8v-2.7c0.7,0.4,1.6,0.7,2.6,0.9s1.9,0.4,2.8,0.4c1.3,0,2.2-0.2,2.8-0.6c0.6-0.4,0.9-1,0.9-1.7
			c0-0.4-0.1-0.8-0.3-1.1c-0.2-0.3-0.6-0.6-1.2-1c-0.6-0.3-1.4-0.7-2.5-1.1c-1.1-0.4-2-0.8-2.7-1.2c-0.8-0.4-1.3-0.9-1.7-1.5
			c-0.4-0.6-0.6-1.3-0.6-2.3c0-1.4,0.6-2.5,1.7-3.3c1.2-0.8,2.7-1.1,4.6-1.1c1,0,2,0.1,2.9,0.3c0.9,0.2,1.7,0.5,2.6,0.8l-1,2.3
			c-0.7-0.3-1.5-0.6-2.2-0.8s-1.5-0.3-2.3-0.3c-1,0-1.8,0.2-2.4,0.5s-0.8,0.8-0.8,1.4c0,0.5,0.1,0.8,0.4,1.1
			c0.3,0.3,0.7,0.6,1.3,0.9c0.6,0.3,1.4,0.6,2.5,1c1,0.4,1.9,0.8,2.6,1.2c0.7,0.4,1.3,0.9,1.7,1.5C162.2,57.8,162.4,58.6,162.4,59.5
			z"/>
		<path class="st0" d="M180.9,55.8c0,1.4-0.2,2.6-0.5,3.7c-0.4,1.1-0.9,2-1.6,2.7c-0.7,0.7-1.5,1.3-2.5,1.7c-1,0.4-2,0.6-3.3,0.6
			c-1.1,0-2.2-0.2-3.1-0.6c-0.9-0.4-1.8-1-2.4-1.7c-0.7-0.7-1.2-1.6-1.6-2.7c-0.4-1.1-0.6-2.3-0.6-3.7c0-1.8,0.3-3.4,0.9-4.7
			c0.6-1.3,1.5-2.3,2.7-2.9c1.2-0.7,2.6-1,4.2-1c1.5,0,2.9,0.3,4,1c1.2,0.7,2.1,1.7,2.7,2.9C180.6,52.4,180.9,54,180.9,55.8z
			 M168.5,55.8c0,1.3,0.2,2.4,0.5,3.3c0.3,0.9,0.8,1.6,1.5,2.1c0.7,0.5,1.6,0.7,2.6,0.7c1.1,0,1.9-0.2,2.6-0.7
			c0.7-0.5,1.2-1.2,1.5-2.1c0.3-0.9,0.5-2,0.5-3.3c0-1.3-0.2-2.4-0.5-3.3c-0.3-0.9-0.8-1.6-1.5-2.1c-0.7-0.5-1.6-0.7-2.7-0.7
			c-1.6,0-2.8,0.5-3.5,1.6C168.9,52.4,168.5,53.9,168.5,55.8z"/>
		<path class="st0" d="M196.1,59.5c0,1.1-0.3,2-0.8,2.7c-0.5,0.7-1.3,1.3-2.3,1.7c-1,0.4-2.2,0.6-3.6,0.6c-1.2,0-2.2-0.1-3-0.3
			c-0.8-0.2-1.6-0.4-2.3-0.8v-2.7c0.7,0.4,1.6,0.7,2.6,0.9s1.9,0.4,2.8,0.4c1.3,0,2.2-0.2,2.8-0.6c0.6-0.4,0.9-1,0.9-1.7
			c0-0.4-0.1-0.8-0.3-1.1c-0.2-0.3-0.6-0.6-1.2-1c-0.6-0.3-1.4-0.7-2.5-1.1c-1.1-0.4-2-0.8-2.7-1.2c-0.8-0.4-1.3-0.9-1.7-1.5
			c-0.4-0.6-0.6-1.3-0.6-2.3c0-1.4,0.6-2.5,1.7-3.3c1.2-0.8,2.7-1.1,4.6-1.1c1,0,2,0.1,2.9,0.3c0.9,0.2,1.7,0.5,2.6,0.8l-1,2.3
			c-0.7-0.3-1.5-0.6-2.2-0.8s-1.5-0.3-2.3-0.3c-1,0-1.8,0.2-2.4,0.5s-0.8,0.8-0.8,1.4c0,0.5,0.1,0.8,0.4,1.1
			c0.3,0.3,0.7,0.6,1.3,0.9c0.6,0.3,1.4,0.6,2.5,1c1,0.4,1.9,0.8,2.6,1.2c0.7,0.4,1.3,0.9,1.7,1.5C195.9,57.8,196.1,58.6,196.1,59.5
			z"/>
	</g>
	<g>
		<circle class="st1" cx="32.8" cy="26.1" r="3.8"/>
		<circle class="st1" cx="18.5" cy="58.7" r="3.8"/>
		<circle class="st1" cx="69.1" cy="50.6" r="3.8"/>
		<circle class="st1" cx="70.6" cy="32.5" r="3.8"/>
		<g>
			<path class="st0" d="M69.5,12.7c-6-6-13.3-9.7-21.7-11c-12-1.8-22.8,1.2-32.1,8.9C8.8,16.5,4.4,24,2.5,33
				c-0.4,1.7-0.5,3.5-0.8,5.2c0,0.3-0.1,0.6-0.2,0.8v4.4C1.7,44.6,1.8,45.8,2,47c1.3,8.8,5.1,16.4,11.4,22.6
				c6.1,6,13.4,9.7,21.9,11.1c1.4,0.2,2.7,0.3,4.1,0.5h4.4c1.2-0.2,2.4-0.3,3.5-0.5c8.9-1.3,16.4-5.2,22.7-11.5
				c6-6.1,9.8-13.3,11-21.8C83,34,79.1,22.4,69.5,12.7z M36.6,78.5c-1.6-0.3-3.1-0.7-4.5-1c-0.6-0.1-0.5-0.5-0.5-0.9
				c0-4.6,0-9.2,0-13.8c0-3.2-1.4-5.7-4.3-7c-1-0.5-2.2-0.6-3.4-0.8c-0.6-0.1-1.2,0-1.9,0c-0.5,0-0.7-0.1-0.8-0.6
				c-0.9-2.3-3.2-3.5-5.6-3c-2.3,0.5-4,2.5-4,4.9c0,2.4,1.8,4.5,4.1,4.9c2.3,0.4,4.7-0.9,5.5-3.1c0.2-0.4,0.3-0.6,0.8-0.6
				c1.5,0.1,3-0.2,4.4,0.6c1.7,0.9,2.7,2.3,2.7,4.2c0.1,4.7,0,9.4,0,14.1c0,0,0,0.1-0.1,0.1c-14.8-4.8-26.7-20.9-24.7-39h0.8
				c8.7,0,17.4,0,26,0c3.4,0,5.5,2.1,5.5,5.4c0,11.5,0,23.1,0,34.6V78.5z M19,56.2c0,1.4-1.1,2.5-2.5,2.5c-1.3,0-2.5-1.2-2.5-2.5
				c0-1.4,1.2-2.5,2.6-2.5C18,53.7,19,54.9,19,56.2z M79.1,42.9c-0.7,17.1-12.6,29.5-25,33.7v-0.8c0-7.2,0-14.3,0-21.5
				c0-3.4,2.1-5.5,5.5-5.5c0.2,0,0.3,0,0.5,0c1.1-0.2,1.8,0.1,2.4,1.3c1,2,3.5,2.9,5.6,2.2c2.2-0.7,3.7-2.8,3.5-5
				c-0.2-2.4-1.9-4.3-4.2-4.6c-2.2-0.4-4.5,0.9-5.3,3c-0.2,0.5-0.4,0.6-1,0.6c-1.2,0-2.5,0-3.7,0.3c-3.6,0.9-5.7,3.8-5.7,7.6
				c0,7.5,0,14.9,0,22.3c0,0.8-0.3,1.1-1,1.2c-1.3,0.2-2.6,0.5-4,0.8c-0.1-1.1,0.1-2.4-1.3-2.3c-1.5,0.1-1.1,1.5-1.2,2.5h-5v-1
				c0-11.6,0-23.2,0-34.8c0-3.2-1.3-5.7-4.3-7.2C33.6,35.2,32.3,35,31,35c-8.5,0-17,0-25.5,0h-1c0.5-1.8,0.8-3.5,1.3-5.1
				C10.2,17,19,8.6,32.1,4.9c7.1-2,14.2-1.6,21.2,0.7C54,5.8,54.1,6,54.1,6.6c0,5.5,0,10.9,0,16.4c0,2,0.4,3.8,1.7,5.4
				c1.5,1.8,3.5,2.7,5.9,2.8c0.1,0,0.3,0,0.4,0c1.3-0.1,2.2,0,3,1.5c1,2,3.6,2.7,5.8,1.9c2-0.7,3.4-2.9,3.2-5
				c-0.2-2.5-1.9-4.2-4.4-4.6c-2.1-0.3-4.4,1-5.2,3.1c-0.2,0.5-0.5,0.6-1,0.6c-1.4-0.1-2.9,0.2-4.3-0.6c-1.6-0.9-2.6-2.2-2.6-4
				c-0.1-5.7,0-11.5,0-17.3C68.2,11.7,79.8,24.8,79.1,42.9z M64.1,47.4c0-1.4,1.2-2.5,2.6-2.5c1.4,0,2.4,1.2,2.4,2.6
				c0,1.4-1.2,2.5-2.5,2.4C65.2,49.9,64.1,48.8,64.1,47.4z M66.6,30c0-1.4,1.2-2.5,2.6-2.5c1.4,0,2.5,1.1,2.5,2.5
				c0,1.4-1.1,2.5-2.5,2.5C67.7,32.5,66.6,31.3,66.6,30z"/>
			<path class="st0" d="M46.6,29.1c0-3.8-2.1-6.7-5.7-7.6c-1.2-0.3-2.5-0.2-3.7-0.3c-0.5,0-0.8-0.1-1-0.7c-0.9-2.2-3.1-3.4-5.3-3
				c-2.3,0.4-4,2.3-4.2,4.7c-0.1,2.2,1.4,4.3,3.6,5c2.1,0.6,4.7-0.2,5.6-2.2c0.6-1.3,1.4-1.5,2.6-1.4c0.1,0,0.2,0,0.2,0
				c3.5,0,5.5,2.1,5.5,5.5c0,5.3,0,10.7,0,16c0,5.5,0,11.1,0,16.6c0,1.1,0.5,1.7,1.2,1.7c0.8,0,1.2-0.6,1.2-1.7c0-0.5,0-1,0-1.6
				C46.6,49.9,46.6,39.5,46.6,29.1z M31.5,25c-1.3,0-2.5-1.2-2.5-2.5c0-1.4,1.2-2.5,2.6-2.5c1.4,0,2.5,1.1,2.5,2.5
				C34,23.8,32.9,25,31.5,25z"/>
			<path class="st0" d="M45.3,66.3c-0.6,0-1.2,0.5-1.2,1.2c0,0.6,0.6,1.3,1.2,1.3c0.7,0,1.2-0.6,1.2-1.2
				C46.5,66.8,46,66.3,45.3,66.3z"/>
			<path class="st0" d="M45.3,71.3c-0.6,0-1.2,0.5-1.2,1.2c0,0.6,0.6,1.3,1.2,1.3c0.7,0,1.2-0.6,1.2-1.2
				C46.5,71.8,46,71.3,45.3,71.3z"/>
		</g>
	</g>
</g>
</svg>
